<svg id="Layer_1" data-name="Layer 1" xmlns="http://www.w3.org/2000/svg" viewBox="0 0 95.35 32.33"><defs><style>.cls-1,.cls-2{fill:#808184;}.cls-1{fill-rule:evenodd;}.cls-3{fill:#262261;}</style></defs><title>ident-logo</title><path class="cls-1" d="M10.85,3.89A3.14,3.14,0,0,1,14,7,3.18,3.18,0,0,1,7.67,7a3.15,3.15,0,0,1,3.18-3.11" transform="translate(-6.77 -3.89)"/><polygon class="cls-2" points="0 8.7 3.02 11.25 3.32 11.51 3.32 11.9 3.42 31.76 5.27 31.45 6.45 8.09 0 8.7"/><path class="cls-3" d="M24.43,12.2,26,14l.21.55.11,20.8h.37l1.73,0,1.65,0c.52,0,1-.06,1.57-.12s1-.13,1.54-.22a13.26,13.26,0,0,0,1.49-.33c.49-.13,1-.28,1.46-.46a13.28,13.28,0,0,0,1.4-.62c.47-.25.94-.53,1.42-.85h0a16.74,16.74,0,0,0,2.91-2.36A14.69,14.69,0,0,0,44,27.6a12.68,12.68,0,0,0,1.3-3,11.23,11.23,0,0,0,.43-3.11,8.75,8.75,0,0,0-.88-4,7.91,7.91,0,0,0-2.64-2.93,13.43,13.43,0,0,0-4.56-1.86A29.65,29.65,0,0,0,31.11,12H29.06l-.53,0h0Zm4.09,19.21v-.94l.75-16.85,0-.83h1.05l.19,0h.21a19.08,19.08,0,0,1,2.66.17,14.54,14.54,0,0,1,2.4.51h0a14.7,14.7,0,0,1,2.11.83,11.46,11.46,0,0,1,1.8,1.13,9,9,0,0,1,1.46,1.43,8.35,8.35,0,0,1,1.09,1.7,8.46,8.46,0,0,1,.66,1.93,9.75,9.75,0,0,1,.22,2.11,12.37,12.37,0,0,1-.28,2.68A11.09,11.09,0,0,1,42,27.78a10.28,10.28,0,0,1-1.39,2.15,11.15,11.15,0,0,1-1.85,1.78h0a13.12,13.12,0,0,1-1.62,1,11.28,11.28,0,0,1-1.74.78,12.31,12.31,0,0,1-1.71.48,8.57,8.57,0,0,1-1.61.17Q28.52,34.19,28.52,31.41ZM64.9,33.46l0,0-.76.23c-.32.09-.62.17-.91.23s-.67.15-1,.22-.78.13-1.23.17-.9.06-1.34.06A11.45,11.45,0,0,1,57,34.13a7.73,7.73,0,0,1-2.17-.85A6.1,6.1,0,0,1,52.1,30l-.41-1.09,1.2-.06a35.09,35.09,0,0,0,5.69-.68,15.1,15.1,0,0,0,4-1.35A6.7,6.7,0,0,0,64.77,25,3.48,3.48,0,0,0,65.45,23a2.53,2.53,0,0,0-.28-1.22,2.91,2.91,0,0,0-.87-1,4.15,4.15,0,0,0-1.48-.7,7.65,7.65,0,0,0-2.08-.25,13.14,13.14,0,0,0-1.89.14,13.22,13.22,0,0,0-3.66,1.19,12.72,12.72,0,0,0-1.67,1,10.32,10.32,0,0,0-3,3.14,6.93,6.93,0,0,0-1,3.58,6.64,6.64,0,0,0,.14,1.44,6.12,6.12,0,0,0,.44,1.31,6.62,6.62,0,0,0,.69,1.18,6.79,6.79,0,0,0,.93,1,7,7,0,0,0,1.16.83,8.08,8.08,0,0,0,1.39.65,8.71,8.71,0,0,0,1.58.41,10,10,0,0,0,1.76.14C59.64,35.8,63.28,34.88,64.9,33.46Zm-8-5.66a36.35,36.35,0,0,1-4.17.74l-1,.13V27.48a5.94,5.94,0,0,1,.67-2.72,8.14,8.14,0,0,1,.74-1.18,7.86,7.86,0,0,1,1-1,8.17,8.17,0,0,1,1.14-.87,8,8,0,0,1,1.3-.67h0A7.76,7.76,0,0,1,58,20.56a8.13,8.13,0,0,1,1.47-.14,5,5,0,0,1,1.27.15,3,3,0,0,1,1.08.53,2.49,2.49,0,0,1,.71.85A2.44,2.44,0,0,1,62.73,23,3.47,3.47,0,0,1,62,25.2h0a5.5,5.5,0,0,1-2,1.55A15.49,15.49,0,0,1,56.89,27.8Zm12.45-7.57L71,21.6l.31.26v.39l.06,13.44,1.7-.2a27.31,27.31,0,0,1,.17-2.78,19.81,19.81,0,0,1,.5-2.75h0a19.79,19.79,0,0,1,.78-2.36,13.78,13.78,0,0,1,1-2h0A11.37,11.37,0,0,1,76.63,24,7.59,7.59,0,0,1,78,22.76h0a5.73,5.73,0,0,1,1.4-.77,4,4,0,0,1,2.51-.16,2.77,2.77,0,0,1,.91.4,3,3,0,0,1,.68.64,3.49,3.49,0,0,1,.46.83,6.58,6.58,0,0,1,.28.94,8.79,8.79,0,0,1,.15,1.08c0,.34,0,.73.07,1.18s0,.92,0,1.34c0,.13,0,.52,0,1.16,0,.37,0,.72,0,1s0,.63,0,.9v.78c0,.48,0,.9,0,1.28s.07.72.12,1a2.44,2.44,0,0,0,.22.66,2,2,0,0,0,.38.49h0a4.31,4.31,0,0,0,.5.41,3.57,3.57,0,0,0,.47.25v0a5.81,5.81,0,0,1,0-.76c0-.73,0-1.52.07-2.35s.11-1.63.2-2.49.16-1.67.2-2.53.06-1.72.06-2.66a10.24,10.24,0,0,0-.29-2.64,4.54,4.54,0,0,0-.82-1.71h0a3.55,3.55,0,0,0-2.93-1.29,6,6,0,0,0-3.8,1.46c-3.23,2.54-4.34,5.41-5.48,9.14l.54-10.52Zm23.23,0H90.91l-.19.77,1.77-.09.92,0v.89l.1,8.81h0A8.7,8.7,0,0,0,93.86,33a4.35,4.35,0,0,0,.88,1.59h0A4.21,4.21,0,0,0,98,35.8c.94,0,2.87-.58,3.42-1.43l-.33.11a4.44,4.44,0,0,1-.52.15,4.62,4.62,0,0,1-.63.11,4.87,4.87,0,0,1-.66,0,3.38,3.38,0,0,1-2.94-1.41,6.14,6.14,0,0,1-.9-3.6v-.59l.36-7.48,0-.83H98.1a10.18,10.18,0,0,0,3.64-.48,1.61,1.61,0,0,0,.37-.2H95.86l0-.89L96.06,15l-2.58.71,0,3.64v.85Z" transform="translate(-6.77 -3.89)"/><polygon class="cls-3" points="14.45 18.15 12.67 20.93 12.58 20.69 10.48 18.31 14.45 18.15"/></svg>