<svg id="Layer_1" data-name="Layer 1" xmlns="http://www.w3.org/2000/svg" viewBox="0 0 486.62 109.02"><defs><style>.cls-1,.cls-2{fill:#262261;}.cls-1,.cls-3{fill-rule:evenodd;}.cls-2{font-size:11.1px;font-family:Poppins-Medium, Poppins;font-weight:500;}.cls-3,.cls-5{fill:none;stroke:#262261;stroke-miterlimit:10;stroke-width:2px;}.cls-4{font-size:28.17px;fill:#282560;font-family:Poppins-Light, Poppins;font-weight:300;}</style></defs><title>rr-logo</title><path class="cls-1" d="M75,4.35c1.43.26,2.87.44,4.28.79,5,1.27,8.42,4.88,9,9.67A15.09,15.09,0,0,1,85.35,25.4c-1.42,2-3.1,3.84-4.76,5.88,0-.18,0-.11,0-.07C85,36.7,89.44,42.24,94,47.66a12.83,12.83,0,0,0,7,4.53c1,.23,2.07.27,3.1.42.33,0,.64.13,1,.2,0,.09,0,.18,0,.26-.21.13-.42.36-.63.36-3.39-.08-6.78-.06-10.15-.34A7.87,7.87,0,0,1,89.06,50c-2.39-2.83-4.69-5.74-7-8.68-2-2.54-3.81-5.14-5.68-7.74a1.94,1.94,0,0,0-1.74-.92c-2.28,0-4.56,0-6.84-.13-.81,0-1.15.17-1.13,1,.11,4.73.11,9.45.27,14.17.13,3.91.78,4.51,4.64,4.79.48,0,.94.13,1.41.2l0,.4a3.63,3.63,0,0,1-.93.31c-.67,0-1.33,0-2,0-4,0-8,0-12,0a4.6,4.6,0,0,1-1.25-.38,4.29,4.29,0,0,1,1.14-.52c2.13-.26,2.83-.74,3-2.94.28-3.51.44-7,.45-10.54,0-9.35,0-18.71,0-28.06a22.58,22.58,0,0,0-.14-2.47c-.24-2-.91-2.74-3-3.12a12.06,12.06,0,0,0-1.7-.15c-.7,0-.95-.27-.55-.93H75ZM66.74,18.22v9.9c0,1.36.12,1.67,1.45,1.89a43.62,43.62,0,0,0,6.13.63c3.85.05,6.16-1.63,7.53-5.22a17.68,17.68,0,0,0,.66-9.74c-.83-4.28-3.05-7.49-7.43-8.79a17.4,17.4,0,0,0-7.36-.18c-.8.1-1,.6-1,1.34C66.75,11.44,66.74,14.83,66.74,18.22Z" transform="translate(-6.85 -4.35)"/><path class="cls-1" d="M25.88,4.35c1.46.26,2.95.43,4.38.8,4.74,1.23,7.89,4.16,8.82,9a13.72,13.72,0,0,1-2.14,10.19,70.35,70.35,0,0,1-4.59,5.8,8.26,8.26,0,0,1-1,.84c2,2.6,3.93,5.13,5.94,7.58,2.59,3.16,5.19,6.32,7.91,9.37A12.8,12.8,0,0,0,53,52.42c.75.11,1.52.11,2.27.21a2.27,2.27,0,0,1,.68.37c-.2.15-.41.43-.62.43-3.29-.06-6.59,0-9.87-.28a7.26,7.26,0,0,1-4.65-2.4,61.4,61.4,0,0,1-4.43-5.09c-3-3.95-6-8-8.9-12a2.2,2.2,0,0,0-2-1c-2.28,0-4.56-.06-6.85-.12-.61,0-1,.14-.94.84.13,5.19.19,10.39.39,15.59.1,2.48.92,3.21,3.37,3.49.63.07,1.27.06,1.9.15.22,0,.41.27.61.42a3.8,3.8,0,0,1-.66.41,2.07,2.07,0,0,1-.66,0c-4.5,0-9,0-13.51,0A4.5,4.5,0,0,1,7.85,53a5.77,5.77,0,0,1,1.24-.45c2-.24,2.7-.68,2.88-2.72.31-3.47.52-7,.53-10.44,0-9.95-.07-19.91-.11-29.87,0-.1,0-.19,0-.29-.11-2.7-1.13-3.75-3.84-3.93-.57,0-1.13-.12-1.69-.19V4.35h19ZM17.69,18.26v9.88c0,1.3.14,1.65,1.4,1.85a53,53,0,0,0,6.4.65c3.56.11,6-1.7,7.21-5a17.1,17.1,0,0,0-.18-13,9.51,9.51,0,0,0-6.35-5.7,17.55,17.55,0,0,0-7.53-.21c-.75.11-1,.57-1,1.28C17.7,11.42,17.69,14.84,17.69,18.26Z" transform="translate(-6.85 -4.35)"/><path class="cls-1" d="M493.47,51.93l-.34.43a1.88,1.88,0,0,1-2.67.42,1.86,1.86,0,1,1,2.65-2.6l.36.42Z" transform="translate(-6.85 -4.35)"/><path class="cls-1" d="M18.65,4.35h0Z" transform="translate(-6.85 -4.35)"/><path class="cls-1" d="M67.75,4.35h0Z" transform="translate(-6.85 -4.35)"/><path class="cls-1" d="M113.23,53.12l.09-.17c2.09-.13,2.16-1.67,2.18-3.19,0-3,0-5.95.06-8.93,0-3.2,0-6.41,0-9.61,0-2.1-.26-2.34-2.35-2.66a.62.62,0,0,1-.46-.31,6.46,6.46,0,0,1,.75-.11c3.77,0,7.54-.07,11.31.05a19.64,19.64,0,0,1,5.05.8,10.67,10.67,0,0,1,8,9.1c.76,4.89-.53,9.19-4.33,12.52a12.89,12.89,0,0,1-8.83,2.94c-3.7,0-7.41-.2-11.11-.31A1.16,1.16,0,0,1,113.23,53.12Zm5.15-13.42h0c0,2.95,0,5.89,0,8.84,0,.47.1.94.11,1.42a1.8,1.8,0,0,0,1.57,2,24.73,24.73,0,0,0,4.6.51c4.16-.08,8.83-2,10-7.66A22.42,22.42,0,0,0,135,42a11.63,11.63,0,0,0-8.16-12,20.78,20.78,0,0,0-7.24-.63c-.87,0-1.29.4-1.27,1.36C118.41,33.68,118.38,36.69,118.38,39.7Z" transform="translate(-6.85 -4.35)"/><path class="cls-1" d="M463.1,32a6.59,6.59,0,0,1,.74-.12c3.64,0,7.29,0,10.93.07a14.6,14.6,0,0,1,3,.45c8.37,2,9.74,11.25,5.55,16.79a10.74,10.74,0,0,1-8.39,4.2c-1.73.1-3.48,0-5.22-.08l-4.47-.1c-.49,0-1,0-1.57,0,.11-.21.15-.34.19-.34,1.48,0,1.71-1.06,1.75-2.21.05-1.43.09-2.85.09-4.28,0-3.84,0-7.67,0-11.51,0-2.18-.05-2.2-2.18-2.6C463.43,32.29,463.36,32.21,463.1,32Zm5.26,9.7h.13c0,2.85,0,5.7,0,8.54a1.69,1.69,0,0,0,1.59,1.81,21.2,21.2,0,0,0,4,.35c2.9-.12,5.54-1,7.22-3.56,2.2-3.3,2.47-9.85-2-13.48-3-2.44-6.51-2.7-10.16-2.35-.7.07-.74.54-.74,1.09Q468.37,37.92,468.36,41.73Z" transform="translate(-6.85 -4.35)"/><path class="cls-1" d="M164.26,36.17c0,.34,0,.49,0,.63.12,4.47.21,8.94.36,13.41.07,2.11.2,2.21,2.29,2.61a.5.5,0,0,1,.36.33h-7a3.87,3.87,0,0,1,.55-.31c1.79-.45,1.9-.54,1.91-2.4,0-5.3,0-10.59,0-15.89v-3l.41-.14a13.76,13.76,0,0,1,1.16,1q7.64,8,15.24,16a4.51,4.51,0,0,1,.57.85l.3-.21c0-.27,0-.54,0-.81q-.15-6.7-.32-13.41c0-2.12-.17-2.23-2.24-2.47a.51.51,0,0,1-.41-.3h6.5c-.08.12-.12.24-.18.25-1.73.39-1.81.48-1.82,2.26L181.86,52c0,.47-.06.94-.1,1.67a10.52,10.52,0,0,1-1.24-.88c-3.2-3.17-6.4-6.33-9.56-9.53C168.73,41,166.59,38.61,164.26,36.17Z" transform="translate(-6.85 -4.35)"/><path class="cls-1" d="M297.74,32.12c3.2,0,6.29,0,9.38,0a3.87,3.87,0,0,1,1.6.55,4,4,0,0,1,1.7,5.93,26,26,0,0,1-2.07,2.55l.85.4c2.95,1.35,4.38,3.61,4,6.4a5.83,5.83,0,0,1-5.35,5.12c-3.18.31-6.41.07-9.63.07,0-.09,0-.19.05-.19,1.36-.06,1.72-.95,1.75-2.1.05-1.42.11-2.85.11-4.27q0-6,0-12.08c0-1.88-.14-2-2-2.24A1.45,1.45,0,0,1,297.74,32.12Zm5.09,10c0,2.91,0,5.81,0,8.72a1.41,1.41,0,0,0,.74,1,5.64,5.64,0,0,0,5.46-.27c1.59-1.09,1.73-2.83,1.44-4.54C309.9,43.36,306.91,41.48,302.83,42.12ZM302.72,37v1.32c0,2.92,0,2.9,3,2.8a2.6,2.6,0,0,0,2.39-1.43,4.84,4.84,0,0,0-.24-5.21c-1.05-1.62-2.67-1.84-4.45-1.6-.51.07-.7.29-.69.8C302.74,34.75,302.72,35.86,302.72,37Z" transform="translate(-6.85 -4.35)"/><path class="cls-1" d="M355.46,53.15h-8.09s0-.1,0-.14a1.84,1.84,0,0,1,.51-.21c1.15,0,1.54-.75,1.58-1.75.09-2.31.18-4.62.2-6.93,0-4.19,0-8.38,0-12.56,0-1.92-.07-2.94-2.52-3-.1,0-.2-.1-.29-.33a8.52,8.52,0,0,1,.87-.08c2.6,0,5.2,0,7.8,0a14.33,14.33,0,0,1,2.17.18c4.05.62,6.09,3.51,5.24,7.5-1,4.51-5,6.33-8.69,6-.11,0-.2-.1-.3-.35.34,0,.68-.14,1-.16,3.27-.17,5.54-2.39,5.56-5.45,0-3.79-2.18-6.51-5.52-6.76-2.43-.18-2.6,0-2.59,2.36l.06,17.7c0,.28,0,.57,0,.85.13,2.27.49,2.81,2.45,2.78a2.51,2.51,0,0,1,.58.16C355.47,53,355.47,53.09,355.46,53.15Z" transform="translate(-6.85 -4.35)"/><path class="cls-1" d="M210.41,53.18h-6.33L204,53a2.78,2.78,0,0,1,.6-.19,2.82,2.82,0,0,0,2.66-2.08c1-2.56,2-5.13,3-7.69,1.34-3.42,2.66-6.85,4-10.27.19-.48.43-.95.65-1.42l.3,0c.24.49.51,1,.72,1.46q3.33,8.11,6.65,16.26c.26.61.54,1.21.83,1.81a3.19,3.19,0,0,0,2.8,2,.68.68,0,0,1,.52.31h-5.88a6,6,0,0,0-.09-1.54c-.68-1.81-1.45-3.58-2.14-5.38a1.06,1.06,0,0,0-1.17-.83c-1.87,0-3.74,0-5.61,0A1.17,1.17,0,0,0,211,46q-1,2.34-1.75,4.72C208.67,52.28,208.79,52.45,210.41,53.18Zm7.43-9c-1.06-2.81-2.06-5.5-3.07-8.2h-.29l-2.88,8.19Z" transform="translate(-6.85 -4.35)"/><path class="cls-1" d="M296.21,53.15h-5.92a5.12,5.12,0,0,0,0-1.53c-.7-1.86-1.49-3.7-2.22-5.55a.88.88,0,0,0-1-.68c-1.93,0-3.87,0-5.8,0a.87.87,0,0,0-1,.69c-.48,1.38-1,2.73-1.5,4.1-.69,2-.64,2.08,1.29,3h-6.59l0-.17a1.87,1.87,0,0,1,.55-.18,2.92,2.92,0,0,0,2.76-2.23q2-5,3.91-10c1.06-2.72,2.11-5.43,3.18-8.14.14-.37.34-.72.66-1.36.33.6.57,1,.74,1.38q3.31,8.09,6.62,16.17c.1.23.19.47.29.7.79,1.81,1.54,3.66,4.12,3.5C296.28,52.94,296.25,53.05,296.21,53.15ZM284.23,36h-.3c-.95,2.69-1.9,5.38-2.87,8.15h6.22C286.24,41.35,285.23,38.67,284.23,36Z" transform="translate(-6.85 -4.35)"/><path class="cls-1" d="M364.43,32h7.76c-.33.2-.42.3-.51.31-1.53.25-1.59.32-1.05,1.73q2.88,7.44,5.77,14.88c.05.14.13.27.26.54.18-.37.33-.62.44-.89,1.84-4.62,3.69-9.23,5.49-13.86.75-1.92.69-1.94-1.14-2.68h6.08c0,.09,0,.19-.06.19-1.77.1-2.48,1.33-3.09,2.77-2.44,5.71-4.93,11.4-7.4,17.09-.24.54-.54,1.05-1,1.85a13.65,13.65,0,0,1-.9-1.52q-3.44-8.23-6.85-16.49c-.75-1.81-1.23-3.88-4-3.61Z" transform="translate(-6.85 -4.35)"/><path class="cls-1" d="M154.23,44.69c-.16-.09-.2-.1-.21-.12-.68-1.92-.68-1.94-2.79-2-1.16,0-2.32,0-3.54,0,0,2.72,0,5.4,0,8.09a1.23,1.23,0,0,0,1.19,1.28c1.63.05,3.27.06,4.9,0a1.76,1.76,0,0,0,1.47-1.45,2.26,2.26,0,0,1,.42-.92,6.27,6.27,0,0,1-.42,3.43c-.1.22-.65.34-1,.35-1.61,0-3.23,0-4.85,0H144a2.08,2.08,0,0,1-1.05-.2c.14-.08.27-.24.4-.24,1.17,0,1.4-.8,1.46-1.71.08-1.36.16-2.73.17-4.09,0-3.9,0-7.8,0-11.7,0-.31,0-.63-.05-1-.15-1.75-.2-1.8-1.95-2a2.67,2.67,0,0,1-.4-.13c0-.09,0-.18,0-.27h12.53c-.13,1-.27,2.22-.42,3.49-.23-.11-.27-.12-.28-.14-.61-1.92-.67-2-2.72-2.13-1.3-.08-2.6,0-4,0v8.25c2.31-.27,4.66.47,7-.76C154.52,42,154.38,43.3,154.23,44.69Z" transform="translate(-6.85 -4.35)"/><path class="cls-1" d="M425.89,28.24h8.17l0,.25c-.34.05-.69.14-1,.17a1.44,1.44,0,0,0-1.47,1.53c-.05.92-.13,1.84-.12,2.76,0,5.32.09,10.65.14,16,0,.44.13.88.17,1.32a1.68,1.68,0,0,0,1.67,1.64,45.28,45.28,0,0,0,5.21,0c1.25-.07,1.9-1,2.27-2.15a2.93,2.93,0,0,1,.45-1,8.25,8.25,0,0,1-.5,4.18c-.08.19-.46.34-.72.36a19.77,19.77,0,0,1-2.18.09q-5.37,0-10.74-.12a1.56,1.56,0,0,1-1-.28,1.73,1.73,0,0,1,.24-.1c1.74-.44,1.94-.65,2-2.48.08-1.46.11-2.91.11-4.37,0-5,0-10-.06-14.93,0-2-.29-2.24-2.28-2.52-.15,0-.3-.06-.44-.09Z" transform="translate(-6.85 -4.35)"/><path class="cls-1" d="M257.57,53.15a3.66,3.66,0,0,1,.44-.3c1.72-.46,1.93-.61,1.95-2.43.08-6.37.1-12.74.13-19.12a8.12,8.12,0,0,0-.07-.85c-.13-1.27-.47-1.62-1.76-1.82l-.95-.15,0-.24h8.18c0,.08,0,.16.05.23l-1,.19c-1.11.17-1.48.54-1.54,1.67-.07,1.39-.11,2.79-.1,4.18,0,4.63,0,9.26.11,13.89.05,3.08.58,3.58,3.62,3.68.92,0,1.84,0,2.76-.06a3,3,0,0,0,3.07-2.6c.05-.23.14-.46.29-1,.15.44.27.62.25.78-.13,1-.31,2.07-.46,3.1a1.06,1.06,0,0,1-1.16,1l-3.05,0-9.51-.1C258.47,53.25,258.12,53.2,257.57,53.15Z" transform="translate(-6.85 -4.35)"/><path class="cls-1" d="M441,35.17c.26-1.13.5-2.27.8-3.39,0-.1.42-.17.64-.15,1,.09,2.07.3,3.11.31,3.77,0,7.54,0,11.31,0,.88,0,1.76-.12,2.62-.18v3.76l-.24,0a1.25,1.25,0,0,1-.15-.39,1.63,1.63,0,0,0-1.61-1.68c-1.82-.18-3.66-.25-5.57-.37,0,.39-.07.66-.07.93q0,7.36,0,14.73c0,.83.1,1.65.14,2.47a1.37,1.37,0,0,0,1.47,1.5,9.55,9.55,0,0,1,1.16.17l0,.25H447c.2-.16.25-.24.32-.26,1.54-.44,1.7-.44,1.71-2,.07-5.86,0-11.72,0-17.76-2,.1-4,.14-6,.35-.48.05-.92.67-1.33,1.07a3.06,3.06,0,0,0-.43.75Z" transform="translate(-6.85 -4.35)"/><path class="cls-1" d="M205.07,31.76v3.73l-.2,0c-.08-.13-.23-.27-.24-.4a1.64,1.64,0,0,0-1.71-1.68c-1.79-.16-3.59-.23-5.43-.34,0,.35-.1.56-.1.77,0,5.51,0,11,.11,16.54,0,2,.12,2,2.13,2.38a.68.68,0,0,1,.51.33H192.7c.1-.12.14-.21.21-.23,1.51-.41,1.73-.59,1.75-2.21.06-5.7.05-11.41.07-17.11a3.64,3.64,0,0,0-.1-.46c-2,.1-4,.15-6,.36-.46,0-.88.62-1.27,1a3.24,3.24,0,0,0-.45.77l-.36-.1c.27-1.15.54-2.3.84-3.44,0-.08.39-.1.59-.09,1.1.1,2.2.3,3.3.32,3.64,0,7.29,0,10.93,0C203.17,31.94,204.11,31.83,205.07,31.76Z" transform="translate(-6.85 -4.35)"/><path class="cls-1" d="M401.09,53.15h-7.4c-.06-.07-.12-.15-.19-.22,2.23,0,2.13-1.55,2.14-3,0-5.35,0-10.71,0-16.06,0-.22,0-.43,0-.58-1.95,0-3.84,0-5.73,0a1.9,1.9,0,0,0-1.68,1.22c-.11.24-.25.46-.38.69l-.34-.09c.26-1.14.49-2.27.79-3.4,0-.1.42-.17.63-.15,1.1.09,2.2.29,3.3.31,3.65,0,7.29,0,10.94,0,.94,0,1.89-.11,2.8-.17v3.94c-.24-.25-.35-.32-.35-.38,0-1.46-1-1.91-2.2-2-1.64-.09-3.29,0-5,0,0,0-.07,0-.07.14,0,5.73,0,11.47.12,17.2,0,1.75.21,1.84,1.9,2.09a6.74,6.74,0,0,1,.75.17Z" transform="translate(-6.85 -4.35)"/><path class="cls-1" d="M318.25,48.43a2.12,2.12,0,0,1,.12.41c.21,2,1.1,3.11,3.06,3.45a8.77,8.77,0,0,0,3.19,0,3.63,3.63,0,0,0,2.11-5.88,15.47,15.47,0,0,0-2.3-2.12c-1.43-1.2-2.95-2.29-4.32-3.56a5.2,5.2,0,0,1,3.19-9.16,15.85,15.85,0,0,1,2.84,0c.94.06,1.88.26,2.79.4v3.72l-.28,0c-.07-.25-.17-.5-.22-.75a2.37,2.37,0,0,0-2-2,10.69,10.69,0,0,0-3.56-.14,3,3,0,0,0-1.79,5A14.43,14.43,0,0,0,323.55,40c1.34,1.07,2.77,2,4.05,3.13a6,6,0,0,1,2.19,4.68A5.53,5.53,0,0,1,326,53.14a12.28,12.28,0,0,1-7.3-.06,1.13,1.13,0,0,1-.92-1.32c.08-1.12.12-2.24.18-3.36Z" transform="translate(-6.85 -4.35)"/><path class="cls-1" d="M242.7,49.48c-.23,1.14-.39,2.31-.73,3.42-.08.25-.82.4-1.25.4-2.82,0-5.64-.08-8.46-.11-1.16,0-2.31,0-3.54,0,.09-.15.12-.29.16-.29,1.56,0,1.74-1.17,1.75-2.31q0-8.32,0-16.64c0-1.12-.37-1.43-1.49-1.58l-.85-.11a1.87,1.87,0,0,1,0-.25h7.19a1.62,1.62,0,0,1,0,.19,3.89,3.89,0,0,1-.68.13,1.35,1.35,0,0,0-1.46,1.5c0,1-.08,2-.08,3,0,4.27.06,8.55.14,12.83,0,1.88.42,2.29,2.29,2.46a28.19,28.19,0,0,0,3.79,0,2.51,2.51,0,0,0,2.45-2c.06-.23.15-.45.23-.68Z" transform="translate(-6.85 -4.35)"/><path class="cls-1" d="M409.57,51.22a1.79,1.79,0,0,1-1.77,1.94A1.75,1.75,0,0,1,406,51.41a1.82,1.82,0,0,1,1.84-1.89A1.68,1.68,0,0,1,409.57,51.22Z" transform="translate(-6.85 -4.35)"/><text class="cls-2" transform="translate(472.05 16.56)">R</text><path class="cls-3" d="M489.69,17.41A7.67,7.67,0,1,1,482,9.75,7.66,7.66,0,0,1,489.69,17.41Z" transform="translate(-6.85 -4.35)"/><text class="cls-4" transform="translate(245.18 93.13)">complete digital...</text><line class="cls-5" x1="107.13" y1="63.28" x2="486.62" y2="63.28"/></svg>